<mxfile host="app.diagrams.net" modified="2023-06-06T15:06:13.256Z" agent="Mozilla/5.0 (Macintosh; Intel Mac OS X 10_15_7) AppleWebKit/537.36 (KHTML, like Gecko) Chrome/114.0.0.0 Safari/537.36" version="21.1.5" etag="JaMo-XL6R9yX4I1nbOJY" type="github">
  <diagram name="Page-1" id="d4Tb8J7HTa7hxDriJNuN">
    <mxGraphModel>
      <root>
        <mxCell id="0" />
        <mxCell id="1" parent="0" />
      </root>
    </mxGraphModel>
  </diagram>
</mxfile>
